<svg width="36" height="36" viewBox="0 0 36 36" fill="none" xmlns="http://www.w3.org/2000/svg">
  <rect width="36" height="36" rx="6" fill="white" />
  <path d="M18 5C25.18 5 31 10.82 31 18C31 25.18 25.18 31 18 31C10.82 31 5 25.18 5 18C5 10.82 10.82 5 18 5Z" fill="#3B82F6" />
  <path d="M14 12H22C23.1046 12 24 12.8954 24 14V22C24 23.1046 23.1046 24 22 24H14C12.8954 24 12 23.1046 12 22V14C12 12.8954 12.8954 12 14 12Z" fill="white" />
  <path d="M16 15H20V17H16V15Z" fill="#3B82F6" />
  <path d="M16 19H20V21H16V19Z" fill="#3B82F6" />
</svg>